<svg width="32" height="32" viewBox="0 0 32 32" xmlns="http://www.w3.org/2000/svg">
  <!-- Monster body (rounded rectangle) -->
  <rect x="4" y="8" width="24" height="20" rx="12" ry="10" fill="#10b981" stroke="#059669" stroke-width="1"/>
  
  <!-- Big googly eyes -->
  <circle cx="12" cy="14" r="4" fill="white" stroke="#e5e7eb" stroke-width="0.5"/>
  <circle cx="20" cy="14" r="4" fill="white" stroke="#e5e7eb" stroke-width="0.5"/>
  
  <!-- Eye pupils (looking slightly different directions for character) -->
  <circle cx="12.5" cy="14.5" r="2" fill="#1f2937"/>
  <circle cx="19.5" cy="13.5" r="2" fill="#1f2937"/>
  
  <!-- Eye highlights -->
  <circle cx="13" cy="13.5" r="0.8" fill="white"/>
  <circle cx="20" cy="13" r="0.8" fill="white"/>
  
  <!-- Wide open mouth with rounded shape -->
  <ellipse cx="16" cy="22" rx="4" ry="2.5" fill="#1f2937"/>
  <ellipse cx="16" cy="21.5" rx="3.5" ry="2" fill="#ef4444"/>
  
  <!-- Small cute teeth -->
  <polygon points="14,21.5 14.5,20 15,21.5" fill="white"/>
  <polygon points="15.5,21.5 16,20 16.5,21.5" fill="white"/>
  <polygon points="17,21.5 17.5,20 18,21.5" fill="white"/>
  
  <!-- Small antenna/horns on top -->
  <circle cx="10" cy="6" r="1.5" fill="#10b981"/>
  <circle cx="22" cy="6" r="1.5" fill="#10b981"/>
  <circle cx="10" cy="5" r="1" fill="#fbbf24"/>
  <circle cx="22" cy="5" r="1" fill="#fbbf24"/>
  
  <!-- Little arms/hands -->
  <ellipse cx="2" cy="18" rx="2" ry="3" fill="#10b981"/>
  <ellipse cx="30" cy="18" rx="2" ry="3" fill="#10b981"/>
</svg>